<?xml version="1.0" standalone="no"?>
<!DOCTYPE svg PUBLIC "-//W3C//DTD SVG 20010904//EN"
 "http://www.w3.org/TR/2001/REC-SVG-20010904/DTD/svg10.dtd">
<svg version="1.0" xmlns="http://www.w3.org/2000/svg"
 width="300.000000pt" height="169.000000pt" viewBox="0 0 300.000000 169.000000"
 preserveAspectRatio="xMidYMid meet">
<metadata>
Created by potrace 1.10, written by Peter Selinger 2001-2011
</metadata>
<g transform="translate(0.000000,169.000000) scale(0.100000,-0.100000)"
fill="#000000" stroke="none">
<path d="M12 1606 c3 -17 667 -733 789 -851 106 -103 56 -39 -85 109 -43 46
-204 218 -280 300 -15 17 -74 80 -130 139 -55 60 -117 126 -136 146 -125 135
-161 171 -158 157z"/>
<path d="M1704 1595 c-225 -49 -427 -210 -524 -418 -55 -118 -74 -222 -67
-371 4 -67 9 -133 13 -148 l6 -28 -118 0 -119 1 -445 419 c-244 230 -446 418
-448 416 -1 -2 0 -16 4 -30 3 -15 9 -24 12 -21 3 3 24 -12 46 -34 23 -22 90
-86 151 -143 60 -57 135 -128 167 -158 31 -30 100 -95 154 -145 53 -49 149
-141 213 -202 70 -68 128 -116 147 -122 17 -5 79 -8 138 -7 58 0 106 -2 106
-6 0 -9 55 -125 80 -168 11 -19 55 -73 97 -119 87 -95 177 -157 286 -200 12
-5 34 -13 49 -19 50 -20 200 -35 285 -28 143 12 318 89 432 192 109 98 192
237 230 385 16 65 20 71 65 100 27 16 51 27 55 24 3 -4 7 -74 8 -157 1 -104 6
-154 15 -165 10 -12 27 -14 93 -9 127 10 165 17 165 30 0 9 -16 11 -62 5 -35
-4 -91 -10 -125 -13 l-63 -7 0 191 0 191 -57 -44 c-32 -24 -62 -46 -68 -49 -6
-4 -10 41 -10 125 -1 148 -16 212 -81 342 -99 195 -294 344 -512 390 -83 18
-237 18 -318 0z m351 -20 c245 -66 436 -249 521 -500 24 -71 27 -95 27 -220 1
-154 -11 -218 -64 -333 -192 -425 -724 -568 -1104 -298 -200 143 -314 370
-313 625 1 368 256 674 618 742 64 12 244 2 315 -16z"/>
<path d="M1767 1454 c-18 -60 -107 -342 -197 -628 l-164 -519 -46 51 c-25 28
-52 63 -60 79 -8 15 -17 30 -20 33 -26 26 -90 187 -90 226 0 26 0 26 63 21 34
-4 103 -9 153 -13 l92 -7 -8 -28 c-12 -42 5 -36 18 7 8 26 8 36 -1 39 -9 3
-263 24 -327 27 -16 1 -17 -8 -4 -63 31 -133 100 -257 196 -353 39 -38 73 -65
78 -60 9 10 645 1208 655 1236 9 24 -86 49 -207 56 l-96 5 -35 -109z m176 79
c-24 -2 -62 -2 -85 0 -24 2 -5 4 42 4 47 0 66 -2 43 -4z m37 -23 c0 -3 10 -7
23 -7 71 -6 71 -5 25 -96 -23 -45 -45 -84 -48 -87 -3 -3 -21 -36 -41 -75 -20
-38 -67 -128 -104 -200 -37 -71 -94 -179 -125 -240 -250 -485 -265 -511 -275
-495 -4 7 -3 15 3 19 5 3 15 33 22 65 7 33 16 69 20 80 5 12 45 136 90 276 45
140 95 293 110 340 44 132 97 301 110 347 17 68 42 84 122 81 37 -2 68 -5 68
-8z"/>
<path d="M1750 1542 c0 -8 -136 -48 -157 -45 -7 0 -10 -4 -6 -10 4 -6 0 -8
-11 -4 -9 4 -15 3 -12 -2 3 -5 -1 -12 -10 -15 -9 -3 -12 -2 -8 5 9 15 -42 -13
-94 -50 -25 -19 -40 -36 -36 -43 5 -7 2 -9 -9 -5 -8 3 -21 -1 -27 -9 -7 -8
-10 -14 -6 -14 4 0 -18 -29 -47 -64 -30 -34 -62 -82 -73 -105 -10 -22 -23 -41
-28 -41 -6 0 -4 -5 4 -10 8 -5 26 -7 40 -4 20 5 22 3 10 -5 -12 -9 -8 -10 15
-5 24 4 27 3 15 -6 -12 -9 -10 -10 9 -5 15 5 21 3 17 -3 -9 -15 145 -65 159
-51 7 7 4 8 -9 3 -14 -5 -17 -4 -11 5 6 10 2 11 -15 6 -14 -4 -20 -3 -16 3 3
5 -35 24 -89 43 -97 34 -105 42 -84 81 27 51 148 169 219 216 83 53 230 110
230 88 0 -6 -49 -195 -66 -252 -8 -28 -11 -59 -8 -69 5 -13 4 -16 -4 -11 -14
8 -15 -3 -4 -22 11 -17 44 90 35 113 -5 13 -3 16 6 10 10 -6 11 -2 6 15 -5 16
-4 20 4 15 8 -5 10 2 6 22 -5 22 -4 25 4 13 9 -12 10 -8 5 15 -4 23 -3 27 5
15 9 -12 10 -9 5 14 -5 19 -3 27 4 22 6 -4 8 2 4 16 -3 13 -1 19 5 15 7 -5 9
1 5 15 -3 13 -1 19 5 15 6 -4 8 4 5 20 -3 18 -1 24 6 19 8 -4 10 -2 6 7 -3 8
-1 18 5 22 14 8 14 25 1 25 -5 0 -10 -4 -10 -8z m-220 -87 c0 -2 -10 -9 -22
-15 -22 -11 -22 -10 -4 4 21 17 26 19 26 11z m-50 -29 c0 -3 -15 -14 -32 -26
l-33 -22 30 26 c31 27 35 29 35 22z"/>
<path d="M2061 1354 l-74 -136 49 -112 c26 -61 67 -154 91 -206 l42 -95 85
-31 c48 -17 86 -29 85 -25 0 3 -39 170 -87 371 -64 265 -92 366 -103 368 -10
2 -39 -42 -88 -134z m101 22 c9 -18 13 -38 8 -45 -4 -7 -1 -27 8 -43 8 -17 16
-42 17 -57 1 -14 5 -33 8 -41 4 -8 11 -37 16 -65 5 -27 25 -114 44 -192 l34
-143 -30 5 c-35 7 -69 23 -79 39 -4 6 -26 54 -49 106 -23 52 -55 124 -71 160
-39 86 -35 129 26 250 7 14 20 24 30 24 16 -2 16 0 2 15 -9 10 -13 20 -10 24
11 11 31 -4 46 -37z"/>
<path d="M2203 1448 c3 -13 36 -166 73 -341 37 -174 69 -315 71 -313 3 2 -7
60 -21 128 -13 67 -27 139 -29 158 -3 19 -14 85 -26 145 -11 61 -22 119 -24
130 -2 11 -7 28 -12 38 -11 27 -1 30 28 7 14 -11 28 -20 31 -20 9 0 65 -60
106 -115 112 -147 155 -289 147 -478 -2 -59 -7 -110 -10 -113 -8 -8 -177 47
-172 56 3 5 -3 6 -12 4 -10 -3 -130 34 -266 81 -137 47 -254 85 -260 85 -13 0
-110 -170 -102 -178 2 -2 127 -17 277 -33 397 -40 480 -50 508 -55 23 -4 27 0
40 43 19 64 19 262 1 328 -51 182 -184 371 -312 443 l-41 23 5 -23z m-320
-592 c18 -7 52 -19 77 -27 25 -7 50 -16 55 -19 6 -4 19 -10 30 -13 94 -25 232
-70 239 -78 6 -5 18 -9 27 -9 10 0 30 -5 46 -12 15 -6 31 -12 35 -12 3 -1 10
-5 15 -9 4 -5 -8 -6 -27 -3 -19 3 -66 8 -105 11 -152 12 -506 52 -511 58 -3 3
3 19 15 35 12 17 21 33 21 36 0 13 33 56 42 56 6 0 24 -6 41 -14z"/>
<path d="M1927 1112 c-20 -37 -52 -94 -71 -128 l-34 -61 34 -11 c19 -5 34 -7
34 -2 0 4 -11 11 -25 14 l-25 6 20 39 c10 21 25 45 32 52 7 8 23 32 35 54 27
50 49 56 64 18 9 -24 38 -83 117 -239 13 -25 25 -44 28 -41 4 4 -152 344 -165
359 -4 5 -23 -22 -44 -60z"/>
<path d="M1625 1126 c7 -23 -22 -116 -36 -116 -6 0 -8 4 -5 9 4 5 -4 7 -16 4
-19 -4 -20 -3 -8 6 12 9 9 10 -15 5 -23 -4 -26 -3 -15 5 18 13 1 15 -19 2 -9
-6 2 -14 38 -26 29 -9 54 -15 55 -14 2 2 11 27 20 56 14 41 15 56 6 70 -11 17
-11 17 -5 -1z"/>
<path d="M1201 1091 c-12 -21 -38 -163 -46 -248 -5 -59 -4 -63 17 -67 39 -8
349 -38 352 -35 1 2 18 57 38 121 l36 117 -194 65 c-177 59 -195 63 -203 47z
m126 -52 c23 -11 46 -19 51 -19 15 0 166 -51 174 -59 7 -6 -10 -80 -39 -175
-5 -17 -12 -18 -82 -12 -42 3 -115 11 -163 17 l-87 12 4 66 c2 36 6 75 8 86 3
11 8 38 12 60 4 22 9 44 12 48 6 11 57 0 110 -24z"/>
<path d="M1907 899 c7 -7 15 -10 18 -7 3 3 -2 9 -12 12 -14 6 -15 5 -6 -5z"/>
<path d="M2351 764 c0 -11 3 -14 6 -6 3 7 2 16 -1 19 -3 4 -6 -2 -5 -13z"/>
<path d="M1652 603 c-28 -53 -50 -98 -49 -100 2 -2 28 38 58 89 63 107 37 99
249 74 74 -9 171 -18 215 -21 86 -5 105 -17 105 -63 0 -13 4 -20 10 -17 6 3
10 -1 10 -10 0 -8 5 -23 10 -33 6 -9 26 -55 45 -102 l35 -85 -43 -38 c-48 -44
-50 -45 -97 -74 -37 -23 -142 -59 -200 -70 -19 -4 -87 -6 -150 -6 -130 1 -222
25 -319 82 -54 32 -77 39 -65 20 10 -17 183 -96 229 -104 22 -5 47 -10 55 -12
8 -2 65 -3 126 -3 187 0 308 45 453 168 l34 29 -22 50 c-13 27 -44 98 -70 159
l-47 109 -44 7 c-44 7 -445 49 -465 48 -5 0 -34 -44 -63 -97z"/>
<path d="M2242 639 c34 -81 122 -276 128 -282 4 -5 17 5 29 21 l21 30 -27 116
c-25 111 -28 116 -52 116 -14 0 -44 3 -65 7 -32 5 -38 3 -34 -8z m107 -46 c18
-44 39 -170 31 -183 -7 -12 -43 67 -43 95 0 8 -4 12 -9 9 -4 -3 -8 -3 -8 0 0
3 -9 28 -20 56 l-20 50 29 0 c22 0 31 -7 40 -27z"/>
<path d="M2382 630 c0 -8 4 -26 8 -40 6 -20 8 -21 8 -5 0 11 -3 29 -8 40 -5
12 -8 14 -8 5z"/>
<path d="M2500 566 c0 -13 -7 -29 -15 -36 -8 -7 -15 -18 -15 -24 0 -6 -8 -23
-17 -36 -10 -14 -18 -31 -19 -38 -5 -29 30 14 58 73 30 64 34 85 18 85 -5 0
-10 -11 -10 -24z"/>
<path d="M2401 544 c0 -11 3 -14 6 -6 3 7 2 16 -1 19 -3 4 -6 -2 -5 -13z"/>
<path d="M1585 479 c-4 -6 -5 -12 -2 -15 2 -3 7 2 10 11 7 17 1 20 -8 4z"/>
<path d="M2738 972 c-40 -32 -80 -67 -88 -77 -14 -17 -14 -17 5 -8 11 6 53 39
92 72 40 34 75 61 78 61 2 0 6 -104 7 -232 l3 -232 70 -18 c78 -20 125 -19 55
1 -25 8 -60 18 -77 23 l-33 10 -2 76 c0 42 -2 141 -3 218 -2 137 -6 164 -25
164 -5 0 -42 -26 -82 -58z"/>
<path d="M11 874 c0 -11 3 -14 6 -6 3 7 2 16 -1 19 -3 4 -6 -2 -5 -13z"/>
<path d="M11 724 c0 -11 3 -14 6 -6 3 7 2 16 -1 19 -3 4 -6 -2 -5 -13z"/>
<path d="M1038 653 c12 -2 32 -2 45 0 12 2 2 4 -23 4 -25 0 -35 -2 -22 -4z"/>
<path d="M10 18 c0 -5 674 -7 1498 -6 823 2 1308 4 1077 5 -1096 7 -2575 7
-2575 1z"/>
</g>
</svg>
